<svg xmlns="http://www.w3.org/2000/svg" width="18.151" height="16" viewBox="0 0 18.151 16">
  <path id="Path_141" data-name="Path 141" d="M67.79,84.392a1.412,1.412,0,0,0-2.052.713A4.678,4.678,0,0,1,62.731,87.5a5.254,5.254,0,0,1-4.587-1.064A8.235,8.235,0,0,1,56.257,83.1a12.342,12.342,0,0,0,3.226.428,12.615,12.615,0,0,0,7.506-2.184,3.894,3.894,0,0,0,1.745-3.084c0-1.723-1.734-3.841-6.8-3.841a13.537,13.537,0,0,0-6.837,1.865,4.7,4.7,0,0,0-1.69,1.69,3.3,3.3,0,0,0-1.953,5.5A3.182,3.182,0,0,0,53.765,84.5c1.668,4.488,4.576,5.915,7.824,5.915a7.877,7.877,0,0,0,6.727-4.181A1.4,1.4,0,0,0,67.79,84.392ZM55.864,79.819c-.252-.2-.074-.42.165-.667s2.132-1.934,6.37-1.934a6.334,6.334,0,0,1,3.4.905c.321.288-.066.6-.313.831a9.642,9.642,0,0,1-5.992,1.761A6.4,6.4,0,0,1,55.864,79.819Z" transform="translate(-50.583 -74.417)" fill="#fff"/>
</svg>
