<svg xmlns="http://www.w3.org/2000/svg" width="63.86" height="40" viewBox="0 0 63.86 40">
  <g id="Group_303" data-name="Group 303" transform="translate(-6 -23)">
    <g id="Group_304" data-name="Group 304" transform="translate(6 23)">
      <g id="Group_303-2" data-name="Group 303">
        <path id="Path_152" data-name="Path 152" d="M46,53.877V32.123h2.056c5.9-.145,9.9,3.246,9.874,10.877.028,7.83-3.773,11.022-9.774,10.877ZM31.965,23,46,63h2.807C62.458,63,69.86,54.82,69.86,43c0-12.02-7.3-20-21.053-20ZM21.518,47.207l3.761-12.6,3.781,12.6H21.518ZM20.035,23,6,63H16.844l1.989-6.789,12.923-.031L33.779,63H44.6L30.561,23Z" transform="translate(-6 -23)" fill="#d10a10" fill-rule="evenodd"/>
      </g>
    </g>
  </g>
</svg>
