<svg xmlns="http://www.w3.org/2000/svg" width="172" height="36.505" viewBox="0 0 172 36.505">
  <path id="_79475448" data-name=" 79475448" d="M26.776,22.013a11.473,11.473,0,0,1-.305-2.467c-.9-.422-2.95.819-2.767,2.243.366,2.849,2.381,2.381,2.076,3.419-.2.407-.57.366-1.1.244a6.133,6.133,0,0,1-4.838-6.186c.117-4.7,4.186-6.594,8.826-6.553A14.577,14.577,0,0,1,40,18.583a16.7,16.7,0,0,1,3.422,11.278c-.352,4.358-1.672,7-3.215,8.808A9.54,9.54,0,0,1,32.7,42.017c-3.032.065-7.408-1.343-9.605-1.221a13.545,13.545,0,0,0-4.924,1.262c-.207.145-.371.142-.451.024v-.511c.013-.04.027-.081.044-.124.244-.61,1.018-5.861,6.878-6.8,0,0-2.747-5.087,3.846-8.709A22.089,22.089,0,0,1,26.776,22.013Zm.55,7.468a2.755,2.755,0,0,0,1.791,2.442c1.079-1.445.59-4.375-.489-5.576A3.87,3.87,0,0,0,27.325,29.482Zm5.964.041a3.968,3.968,0,0,1-2.737,3.849c2.177.1,3.732-1.935,3.692-4.093s-1.73-4.558-2.89-6.105C32.453,25.615,33.289,27.65,33.289,29.522Zm2.176-1.995c.728,3.383-.61,6.757-4.464,7.571,1.913.733,5.664,1.811,6.4,1.607a4.429,4.429,0,0,0,2.747-4.049,12.206,12.206,0,0,0-2.111-7.169c-1.262-1.953-3.75-4.878-6.517-5.245C31.517,21.4,34.773,24.313,35.465,27.528ZM27.814,15.51c7.243-.121,11.8,5.668,12.943,7.46a13.232,13.232,0,0,0-12.291-8.809c-6.043-.12-7.2,4.312-6.665,6.123C21.841,20.08,22.4,15.6,27.814,15.51Zm8.255,22.657c-4.267-.281-8.052-4.148-13.952-.825C27.829,36.346,31,39.44,36.069,38.168ZM51.908,22.447,55.469,27.3V29.24l-5.8,4.63v1.575l1.547,1.547L53.1,35.509l.808.834v2.011l-4.565,3.724-4.5-4.456V28.085Zm-2.273,7.836,1.337-1.113L49.635,27.4Zm-2.459,6.29,2.1,2.035.844-.763-1.771-1.873V26.892l-1.17.91ZM52.9,27.7l.819-.673-2.151-2.75-.8.672ZM69.47,18.208s-1.9-1.247-3.3-.041a3.049,3.049,0,0,0-.712,2.646l-2.544,2.055a10.642,10.642,0,0,1,2.2-8.079A6.533,6.533,0,0,1,69.692,12.3h1.867c2.822.275,6.726,2.29,10.1,2.29,2.849,0,2.971-1.465,3.622-1.383s.57,2.727-1.017,3.948A8.154,8.154,0,0,1,80.4,18.818V33.552a20.189,20.189,0,0,0,4.4-6.207c-.163,10.7-6.37,14.53-11.62,14.53S62.49,37.2,62.49,30.56C62.49,24.028,66.7,20.935,69.47,18.208Zm14.021-2.157c-5.149,1.119-8.038-2.524-12.719-2.524-2.564,0-3.683.916-4.152,1.73a6.847,6.847,0,0,1,3.521-.694C74.578,14.564,80.163,19.5,83.491,16.051ZM71.525,18.9c-1.14,1.058-2.788,5.087-2.89,6.512,0,0,5.637-4.538,6.552-5.474C75.188,19.938,71.627,18.92,71.525,18.9Zm.08,8.007s-2.1,1.639-2.767,2.188a7.3,7.3,0,0,0,2.767,3.978Zm3.081,2.982,1.162-.844v-8.11l-1.162.916Zm2.17.875-.692,1.873-2.33,1.74a5.328,5.328,0,0,0,4.226.1V20.754l-1.2.946Zm-9.371,3.722a9.723,9.723,0,0,0,7.123,3.093c1.913,0,3.184-.548,5.4-2.135a10.462,10.462,0,0,1-10.765-2.2c-3.4-3.337-2.646-8.684-.916-11.9C63.874,26.592,65.452,32.105,67.487,34.486Zm38.471.09v2.707l-4.579,4.782L96.9,37.018l1.556-1.791V18.316a3.114,3.114,0,0,0-1.422-2.325l4.375-3.073c1.6,1.206,1.941,3.526,1.941,4.727V35.736s1.445-1.343,1.852-1.771Zm-4.926-16.707v17.42l-.387.808,1.14,1.221.865-.782a2.4,2.4,0,0,1-.488-1.055V17.889a5.542,5.542,0,0,0-1.049-3.581l-.917.64c.855.61.835,2.391.835,2.921Zm28.472,7.9,1.272-1.068.576.763L129.928,28.3v6.953c0,2.408,3.179,4.382,2.1,8.259-.526,2.34-4.142,2.837-5.054,2.917a7.393,7.393,0,0,0-3.68,1.628,5.938,5.938,0,0,0-3.816-2.476c-.39-1.679.865-3.438,3.29-3.438a5.2,5.2,0,0,1,3.782,1.607c.492-.2,1.747-.526,1.747-1.594s-1.085-2.171-2.2-3.188l-3.426,2.781-3.815-3.6V28.7l7.733-6.732,2.917,3.8Zm-5.438,18.888.672-.4a2.019,2.019,0,0,0-2.547-.911A7.244,7.244,0,0,1,124.066,44.657Zm-1.389-17.792-1.164,1.06v7.869l1.829,1.865.8-.715-1.467-1.628Zm1.213,7.9,1.26,1.161V27.884l-1.26-1.543Zm3.573-7.437V35.35c0,2.68,2.99,4.206,2.99,6.2.967-1.764-1.781-4.048-1.781-6.133,0-1.052.017-8.259.017-8.259l-2.441-3.341-.887.715,2.1,2.8Zm10.113-5.274,1.8,1.882,2.8-1.95,1.679,1.968,1.56-1.018.509.407v2.75l-4.806,3.65-2.062-2.411v7.441l.882.865,1.187-.95.492.509v2.747l-4.443,3.832L133.337,38a3.027,3.027,0,0,0,.712-1.543V26.43l-.61-.628-.476.249-.294-.363Zm-.989,3.295v10.7l1.255,1.255.87-.751-.95-1.034V24.87l-.984-1.215-.981.749Zm5.476-.02.669-.545-1.115-1.38-.67.588Zm3.509,2.321,6.859-5.681,3.806,3.186.594-.561.793.663-.954,2.443v7.581l.967.865.848-.763.746.831V38.47l-3.765,3.239-2.527-2.628-3.273,2.679-4.1-4.256Zm4.969,7.575,1.077,1.051V27.343l-1.077-1Zm-1.561-8.989-1.082.955V36.36l1.95,1.963.853-.768L148.981,35.8Zm4.972.325v9.607l1.67,1.755.793-.793-1.2-1.34V26.023l-2.97-2.534-.913.848Zm23.1-7.61,5.85-5.528h2.307a4.826,4.826,0,0,0,4.505,1.73v.576l-3.657,4a11.637,11.637,0,0,1-3.527-1.153V22h3.222v1.187l-2.17,2.17h-1.051V37.538L180.074,40v6.325l-3,2.479V25.328h-3.765v-.916L175.817,22h1.238Zm6.613-4.8-.724.7a3.9,3.9,0,0,0,3.268,1.373A5.868,5.868,0,0,1,183.668,14.152Zm-3.713,24.165,1.02-1.127V16.476l-1.02,1.173ZM93.019,22.447,96.581,27.3V29.24l-5.8,4.63v1.575l1.547,1.547,1.884-1.482.808.834v2.011l-4.564,3.724-4.5-4.456V28.085Zm-2.273,7.836,1.337-1.113L90.746,27.4Zm-2.459,6.29,2.1,2.035.844-.763-1.771-1.873V26.892l-1.17.91ZM94.008,27.7l.819-.673-2.151-2.75-.8.672ZM114.2,22.447l3.561,4.858V29.24l-5.8,4.63v1.575l1.547,1.547,1.884-1.482.808.834v2.011l-4.564,3.724-4.5-4.456V28.085Zm-2.273,7.836,1.337-1.113L111.924,27.4Zm-2.459,6.29,2.1,2.035.844-.763-1.77-1.873V26.892l-1.17.91Zm5.721-8.871.819-.673-2.151-2.75-.8.672Zm45.415-.05,6.86-5.681,3.806,3.186.594-.561.793.663L171.7,27.7v7.581l.967.865.848-.763.746.831V38.47L170.5,41.709l-2.527-2.628L164.7,41.76,160.6,37.5Zm4.968,7.575,1.077,1.051V27.343l-1.077-1Zm-1.56-8.989-1.082.955V36.36l1.95,1.963.853-.768L164.009,35.8Zm4.972.325v9.607l1.67,1.755.794-.793-1.2-1.34V26.023l-2.97-2.534-.913.848Z" transform="translate(-17.717 -12.296)" fill-rule="evenodd"/>
</svg>
