<svg id="Group_309" data-name="Group 309" xmlns="http://www.w3.org/2000/svg" xmlns:xlink="http://www.w3.org/1999/xlink" width="260.904" height="60" viewBox="0 0 260.904 60">
  <defs>
    <linearGradient id="linear-gradient" x1="-0.233" y1="-0.311" x2="0.5" y2="1" gradientUnits="objectBoundingBox">
      <stop offset="0" stop-color="#9b7539"/>
      <stop offset="1" stop-color="#be9b63"/>
    </linearGradient>
  </defs>
  <rect id="Rectangle_153" data-name="Rectangle 153" width="60" height="60" fill="url(#linear-gradient)"/>
  <path id="Path_109" data-name="Path 109" d="M236.266,111.392q0,.89-.847.889h-4.532q-.848,0-.847-.891V96.534a5.123,5.123,0,0,0-.169-1.316,2.619,2.619,0,0,0-.593-1.1,3.2,3.2,0,0,0-1.1-.764,4.231,4.231,0,0,0-1.694-.3,5.317,5.317,0,0,0-1.652.213,2.142,2.142,0,0,0-.953.573,1.852,1.852,0,0,0-.424.828,4.383,4.383,0,0,0-.106.976V111.39a.787.787,0,0,1-.889.891h-4.489q-.847,0-.847-.889V93.773a3.166,3.166,0,0,1,.36-1.673,3.1,3.1,0,0,1,1.376-1.037,12.7,12.7,0,0,1,3.24-.911,27,27,0,0,1,4.553-.36,19.816,19.816,0,0,1,3.748.339,9.209,9.209,0,0,1,3.049,1.122,6.1,6.1,0,0,1,2.054,2.012,5.6,5.6,0,0,1,.762,3.007Z" transform="translate(-152.817 -64.439)" fill="#fff"/>
  <path id="Path_110" data-name="Path 110" d="M297.368,89.024a19.087,19.087,0,0,1-1.08,7.009A12.148,12.148,0,0,1,293.7,100.2a7.98,7.98,0,0,1-3.049,1.991,8.43,8.43,0,0,1-2.478.508,3.082,3.082,0,0,1-1.313-.275,1.111,1.111,0,0,1-.593-1.122,1.048,1.048,0,0,1,.254-.741,3.031,3.031,0,0,1,.678-.529,10.6,10.6,0,0,0,1.567-1.144,5.848,5.848,0,0,0,1.249-1.609,8.8,8.8,0,0,0,.826-2.435,18.388,18.388,0,0,0,.3-3.579V71.532q0-.889.847-.89h4.489a.786.786,0,0,1,.889.89Zm.3-24.056a2.384,2.384,0,0,1-.932,1.884,3.755,3.755,0,0,1-2.5.784,3.668,3.668,0,0,1-2.478-.784,2.4,2.4,0,0,1-.911-1.884,2.342,2.342,0,0,1,.911-1.864,3.737,3.737,0,0,1,2.478-.763,3.827,3.827,0,0,1,2.5.763A2.326,2.326,0,0,1,297.665,64.967Z" transform="translate(-202.442 -44.739)" fill="#fff"/>
  <path id="Path_111" data-name="Path 111" d="M361.966,101.269a14.546,14.546,0,0,1-.72,4.7,10.5,10.5,0,0,1-2.075,3.642,9.386,9.386,0,0,1-3.282,2.372,11.548,11.548,0,0,1-8.682,0,9.166,9.166,0,0,1-3.261-2.372,10.667,10.667,0,0,1-2.054-3.642,15.711,15.711,0,0,1,0-9.4,10.259,10.259,0,0,1,2.075-3.621,9.282,9.282,0,0,1,3.282-2.329,11.6,11.6,0,0,1,8.6,0,9.3,9.3,0,0,1,3.282,2.329,10.543,10.543,0,0,1,2.1,3.621A14.175,14.175,0,0,1,361.966,101.269Zm-6.353,0a21.149,21.149,0,0,0-.233-3.261,9.484,9.484,0,0,0-.741-2.563,4.585,4.585,0,0,0-1.292-1.694,2.9,2.9,0,0,0-1.842-.614,3.164,3.164,0,0,0-3.028,2.118,13.909,13.909,0,0,0-.953,5.633,21.467,21.467,0,0,0,.233,3.282,9.769,9.769,0,0,0,.741,2.6,4.652,4.652,0,0,0,1.271,1.716,2.812,2.812,0,0,0,1.821.614,3.016,3.016,0,0,0,1.864-.572,4.212,4.212,0,0,0,1.249-1.588,8.612,8.612,0,0,0,.7-2.456A22.292,22.292,0,0,0,355.613,101.269Z" transform="translate(-241.84 -64.439)" fill="#fff"/>
  <path id="Path_112" data-name="Path 112" d="M443,92.631a1.4,1.4,0,0,1-.043.339,3.019,3.019,0,0,1-.127.381l-8.047,23.294a18.865,18.865,0,0,1-1.292,2.9,9.81,9.81,0,0,1-1.779,2.329,7.464,7.464,0,0,1-2.414,1.546,8.58,8.58,0,0,1-3.2.551,5.5,5.5,0,0,1-3.473-.868,2.747,2.747,0,0,1-1.059-2.224,2.214,2.214,0,0,1,.7-1.757,2.447,2.447,0,0,1,1.673-.614,3.531,3.531,0,0,1,.932.106,4.446,4.446,0,0,1,.7.254,6.025,6.025,0,0,0,.635.254,2.216,2.216,0,0,0,.7.106,1.794,1.794,0,0,0,.911-.233,2.7,2.7,0,0,0,.72-.614,5.259,5.259,0,0,0,.572-.847,4.716,4.716,0,0,0,.381-.89l.635-1.821-7.92-21.473a2.835,2.835,0,0,1-.127-.381,1.377,1.377,0,0,1-.042-.339.786.786,0,0,1,.889-.89h4.617a.992.992,0,0,1,1.059.8l3.557,11.52q.254.847.423,1.673t.254,1.5a13.992,13.992,0,0,1,.169,1.524h.085a9.4,9.4,0,0,1,.212-1.524q.127-.677.3-1.5t.424-1.673l3.346-11.52a1.017,1.017,0,0,1,1.1-.8h3.642A.786.786,0,0,1,443,92.631Z" transform="translate(-299.539 -65.838)" fill="#fff"/>
  <path id="Path_113" data-name="Path 113" d="M528.008,86.2q0,.89-.847.889h-4.532q-.848,0-.847-.889V71.844a3.092,3.092,0,0,0-3.3-3.473,4.7,4.7,0,0,0-1.948.381,4.8,4.8,0,0,0-1.44.974V86.2a.786.786,0,0,1-.89.889h-4.489q-.848,0-.847-.889V55.58q0-.889.847-.889H514.2a.786.786,0,0,1,.89.889V66.762a8.446,8.446,0,0,1,2.393-1.461,9.245,9.245,0,0,1,3.748-.7,7.877,7.877,0,0,1,2.583.424,6.736,6.736,0,0,1,2.16,1.207,5.69,5.69,0,0,1,1.482,1.948,6.23,6.23,0,0,1,.551,2.689Z" transform="translate(-362.185 -39.249)" fill="#9b7539"/>
  <path id="Path_114" data-name="Path 114" d="M612.458,101.269a14.548,14.548,0,0,1-.72,4.7,10.5,10.5,0,0,1-2.075,3.642,9.382,9.382,0,0,1-3.282,2.372,11.548,11.548,0,0,1-8.682,0,9.163,9.163,0,0,1-3.261-2.372,10.667,10.667,0,0,1-2.054-3.642,15.707,15.707,0,0,1,0-9.4,10.262,10.262,0,0,1,2.075-3.621,9.287,9.287,0,0,1,3.282-2.329,11.6,11.6,0,0,1,8.6,0,9.292,9.292,0,0,1,3.282,2.329,10.541,10.541,0,0,1,2.1,3.621A14.164,14.164,0,0,1,612.458,101.269Zm-6.353,0a21.164,21.164,0,0,0-.233-3.261,9.489,9.489,0,0,0-.741-2.563,4.584,4.584,0,0,0-1.292-1.694A2.9,2.9,0,0,0,602,93.138a3.164,3.164,0,0,0-3.028,2.118,13.909,13.909,0,0,0-.953,5.633,21.468,21.468,0,0,0,.233,3.282,9.762,9.762,0,0,0,.741,2.6,4.651,4.651,0,0,0,1.271,1.716,2.812,2.812,0,0,0,1.821.614,3.016,3.016,0,0,0,1.864-.572,4.213,4.213,0,0,0,1.249-1.588,8.6,8.6,0,0,0,.7-2.456A22.293,22.293,0,0,0,606.106,101.269Z" transform="translate(-421.605 -64.439)" fill="#9b7539"/>
  <path id="Path_115" data-name="Path 115" d="M688.144,96.65q0,.987-1.25,1.588a7.286,7.286,0,0,1-3.155.6,10.029,10.029,0,0,1-2.047-.233,5.333,5.333,0,0,1-2.047-.91,5.251,5.251,0,0,1-1.577-1.949,7.47,7.47,0,0,1-.639-3.346V79.736h-2.076a.786.786,0,0,1-.889-.889V77.238a.786.786,0,0,1,.889-.89h2.076v-2.8a1.936,1.936,0,0,1,.128-.762.939.939,0,0,1,.469-.466l4.137-1.821c.113-.056.22-.106.319-.148a.8.8,0,0,1,.32-.064q.853,0,.853.889v5.167h3.261a.787.787,0,0,1,.89.89v1.609a.786.786,0,0,1-.89.889h-3.261v12.8a3.072,3.072,0,0,0,.741,2.451,2.666,2.666,0,0,0,1.715.591,4.006,4.006,0,0,0,.444-.021,3.647,3.647,0,0,1,.4-.021Q688.143,95.534,688.144,96.65Z" transform="translate(-481.027 -50.445)" fill="#9b7539"/>
  <path id="Path_116" data-name="Path 116" d="M751.529,105.674a5.481,5.481,0,0,1-.635,2.456,7.7,7.7,0,0,1-1.8,2.308,9.889,9.889,0,0,1-2.774,1.715,9.088,9.088,0,0,1-3.558.678,11.564,11.564,0,0,1-3.981-.678,8.678,8.678,0,0,1-3.261-2.1,9.914,9.914,0,0,1-2.2-3.621,15.463,15.463,0,0,1-.8-5.294,14.171,14.171,0,0,1,.826-5.1,9.869,9.869,0,0,1,2.245-3.536,8.817,8.817,0,0,1,3.261-2.054,11.467,11.467,0,0,1,3.876-.656,8.947,8.947,0,0,1,3.6.7,8.626,8.626,0,0,1,2.753,1.863,8.058,8.058,0,0,1,1.758,2.732,8.985,8.985,0,0,1,.614,3.3,1.665,1.665,0,0,1-.381,1.271,2.314,2.314,0,0,1-1.186.466l-11.647,1.906a8.735,8.735,0,0,0,.551,2.308,6.716,6.716,0,0,0,1.122,1.906,4.874,4.874,0,0,0,1.716,1.292,5.636,5.636,0,0,0,2.372.466,4.949,4.949,0,0,0,1.694-.275,5.944,5.944,0,0,0,1.4-.72,6.722,6.722,0,0,0,1.1-.953,11.245,11.245,0,0,0,.8-.974,1.808,1.808,0,0,1,.529-.551,1.383,1.383,0,0,1,.784-.212,1.151,1.151,0,0,1,.868.381A1.363,1.363,0,0,1,751.529,105.674Zm-5.887-8A9.529,9.529,0,0,0,745.409,96a4.641,4.641,0,0,0-.614-1.482,3.3,3.3,0,0,0-1.1-1.059,3.182,3.182,0,0,0-1.652-.4,3.287,3.287,0,0,0-1.885.529,4.314,4.314,0,0,0-1.292,1.376,6.307,6.307,0,0,0-.741,1.906,12.02,12.02,0,0,0-.275,2.118Z" transform="translate(-522.686 -64.439)" fill="#9b7539"/>
  <path id="Path_117" data-name="Path 117" d="M821.387,86.2a.786.786,0,0,1-.889.889h-4.49q-.848,0-.847-.889V55.58q0-.889.847-.889h4.49a.786.786,0,0,1,.889.889Z" transform="translate(-581.998 -39.249)" fill="#9b7539"/>
  <path id="Path_118" data-name="Path 118" d="M869.491,105.971a6.736,6.736,0,0,1-.571,2.8,5.814,5.814,0,0,1-1.673,2.16,8.228,8.228,0,0,1-2.689,1.4,11.727,11.727,0,0,1-3.579.508,12.516,12.516,0,0,1-3.939-.551,9.3,9.3,0,0,1-2.732-1.376,5.607,5.607,0,0,1-1.588-1.779,3.778,3.778,0,0,1-.508-1.758,2.234,2.234,0,0,1,.72-1.8,2.709,2.709,0,0,1,1.821-.614,3.154,3.154,0,0,1,1.715.466,2.809,2.809,0,0,1,1.08,1.186,7.778,7.778,0,0,0,1.228,1.969,2.711,2.711,0,0,0,2.16.826,2.659,2.659,0,0,0,1.864-.7,2.763,2.763,0,0,0-.042-3.854,8.818,8.818,0,0,0-2.033-1.355q-1.228-.613-2.625-1.165a15.212,15.212,0,0,1-2.626-1.334,7.153,7.153,0,0,1-2.033-1.927,4.884,4.884,0,0,1-.8-2.88,5.9,5.9,0,0,1,.614-2.753,5.583,5.583,0,0,1,1.736-1.99,8.325,8.325,0,0,1,2.647-1.228,12.488,12.488,0,0,1,3.346-.424,11.8,11.8,0,0,1,3.515.466,8.674,8.674,0,0,1,2.456,1.165,4.772,4.772,0,0,1,1.44,1.546,3.358,3.358,0,0,1,.466,1.609,2,2,0,0,1-.677,1.652,2.535,2.535,0,0,1-1.652.55,2.9,2.9,0,0,1-1.588-.444,2.7,2.7,0,0,1-1.038-1.207,6.685,6.685,0,0,0-1.08-1.673,2.386,2.386,0,0,0-1.885-.741,2.577,2.577,0,0,0-1.906.678,2.461,2.461,0,0,0-.677,1.821,2.4,2.4,0,0,0,.826,1.906,8.65,8.65,0,0,0,2.054,1.292q1.228.572,2.69,1.122a13.758,13.758,0,0,1,2.689,1.356,7.337,7.337,0,0,1,2.054,2.012A5.318,5.318,0,0,1,869.491,105.971Z" transform="translate(-608.587 -64.439)" fill="#9b7539"/>
  <path id="Path_133" data-name="Path 133" d="M87.477,95.805c-.682-.377-2.918-1.247-4.4,1.529a10.031,10.031,0,0,1-6.447,5.129c-2.635.682-7.035.329-9.835-2.282s-4.047-7.153-4.047-7.153a26.462,26.462,0,0,0,6.918.918c8.588,0,13.906-3.082,16.094-4.682A8.348,8.348,0,0,0,89.5,82.652c0-3.694-3.718-8.235-14.588-8.235a29.025,29.025,0,0,0-14.659,4,10.083,10.083,0,0,0-3.623,3.624,7.073,7.073,0,0,0-4.188,11.788,6.823,6.823,0,0,0,4.965,2.212c3.577,9.623,9.812,12.682,16.777,12.682,7.882,0,12.823-5.859,14.423-8.965A3,3,0,0,0,87.477,95.805ZM61.907,86c-.541-.424-.159-.9.353-1.43s4.57-4.147,13.659-4.147c1.712,0,5.677.5,7.288,1.941.688.618-.141,1.288-.671,1.782s-4.994,3.776-12.847,3.776C67.095,87.923,63.777,87.464,61.907,86Z" transform="translate(-36.301 -53.405)" fill="#fff"/>
</svg>
