<svg xmlns="http://www.w3.org/2000/svg" width="184.5" height="35.12" viewBox="0 0 184.5 35.12">
  <g id="Group_308" data-name="Group 308" transform="translate(-375 -4243)">
    <g id="Group_307" data-name="Group 307" transform="translate(375 4243)">
      <path id="Path_154" data-name="Path 154" d="M46.932,40.986h-.859c-1.007,0-1.449-.393-2.112-1.547A39.416,39.416,0,0,1,39,24.386h2.382a2.374,2.374,0,0,1,2.284,2.136A66.857,66.857,0,0,0,45.9,34.675c1.2-3.438,4.3-15.544,4.494-17.975h2.112a2.816,2.816,0,0,1,2.235,2.578,4.291,4.291,0,0,1-.074.589c-.638,4.052-5.059,17.214-7.735,21.119" transform="translate(-29.423 -12.62)" fill="#e6007e"/>
      <path id="Path_155" data-name="Path 155" d="M650.458,97.2a2.345,2.345,0,0,1,0,4.69,2.345,2.345,0,1,1,0-4.69" transform="translate(-488.949 -73.352)" fill="#95c121"/>
      <path id="Path_156" data-name="Path 156" d="M682.809,75.938c-1.473,0-2.21-.688-2.21-2.382V68.694c0-2.038-.491-2.628-1.6-2.628-.909,0-1.5.638-1.5,2.48v7.392h-1.523a2.139,2.139,0,0,1-2.382-2.382V68.669c0-3.683,2.038-5.869,5.525-5.869,3.512,0,5.329,1.891,5.329,5.844v7.293Z" transform="translate(-508.187 -47.399)" fill="#e6007e"/>
      <path id="Path_157" data-name="Path 157" d="M732.567,63.765a2.1,2.1,0,0,1-2.161,1.179c-2.136,0-3.806-1.2-3.806-4.126V48h1.228c1.744,0,2.5.81,2.5,2.48V60.4c0,1.056.467,1.375,1.523,1.375h.81v1.3a1.615,1.615,0,0,1-.1.688" transform="translate(-548.172 -36.233)" fill="#e6007e"/>
      <path id="Path_158" data-name="Path 158" d="M23.4,27.861c-4.076,4.2-7.318,4.789-10.191,4.789a9.184,9.184,0,0,1-6.336-2.8C5.231,28.082,4.42,25.577,4.42,22.434A20.466,20.466,0,0,1,12.2,6.1,15.173,15.173,0,0,1,21.07,2.617a7.4,7.4,0,0,1,2.48.393c4.322,1.5,6.458,5.034,6.188,10.265,0,.147-.025.295-.025.442a7.6,7.6,0,0,1,2.529.516c.025-.27.049-.54.049-.786.368-6.336-2.7-11-8.423-12.843C19.694-.747,14.145.579,9.381,4.066A22.489,22.489,0,0,0,0,22.434c0,3.855,1.13,6.974,3.389,9.233A12.82,12.82,0,0,0,12.008,35.2c3.487,0,7.711-.663,12.794-5.574l.27-.27A6.058,6.058,0,0,1,23.4,27.861Z" transform="translate(0 -0.084)" fill="#e6007e"/>
      <path id="Path_159" data-name="Path 159" d="M153.246,62.8c3.315,0,5.623,2.5,5.623,6.606s-2.014,6.8-5.722,6.8c-3.462,0-5.648-2.7-5.648-6.581.025-3.954,2.21-6.827,5.746-6.827m-.123,3.241c-1.007,0-1.768,1.13-1.768,3.192,0,2.775.761,3.733,1.965,3.733.859,0,1.719-.909,1.719-3.217,0-2.947-.835-3.708-1.915-3.708" transform="translate(-111.279 -47.399)" fill="#e6007e"/>
      <path id="Path_160" data-name="Path 160" d="M101.946,62.8c3.315,0,5.623,2.5,5.623,6.606s-2.014,6.8-5.722,6.8c-3.462,0-5.648-2.7-5.648-6.581,0-3.954,2.186-6.827,5.746-6.827m-.147,3.241c-1.007,0-1.768,1.13-1.768,3.192,0,2.775.761,3.733,1.965,3.733.859,0,1.719-.909,1.719-3.217,0-2.947-.835-3.708-1.915-3.708" transform="translate(-72.577 -47.399)" fill="#e6007e"/>
      <path id="Path_161" data-name="Path 161" d="M207.355,66.361a3.38,3.38,0,0,0-1.5-.319c-.909,0-1.4.368-1.4,2.136v7.711h-1.228a2.26,2.26,0,0,1-2.529-2.431V67.687c0-3.217,1.67-4.887,4.15-4.887,1.891,0,2.726.958,2.726,2.087v1.5l-.221-.025Z" transform="translate(-151.415 -47.399)" fill="#e6007e"/>
      <path id="Path_162" data-name="Path 162" d="M237.573,65.042c-3.389,0-5.673-2.8-5.673-6.409,0-4.518,2.063-7,5.132-7a2.671,2.671,0,0,1,2.431,1.375V48h1.351c1.547,0,2.407.933,2.407,2.7v7.686c0,4.494-1.572,6.655-5.648,6.655M237.4,54.876c-.884,0-1.621,1.031-1.621,3.192,0,2.824,1.031,3.782,2.112,3.782,1.228,0,1.523-1.277,1.523-3.168,0-3.119-.884-3.806-2.014-3.806" transform="translate(-174.953 -36.233)" fill="#e6007e"/>
      <path id="Path_163" data-name="Path 163" d="M289.9,70.777h-1.449c0,1.351,1.105,2.087,2.628,2.087,1.817,0,2.775-.417,3.34-1.007h.123v1.154c0,1.572-1.105,3.02-4.224,3.02-3.512,0-5.722-2.628-5.722-6.483,0-4.027,2.308-6.949,5.673-6.949a4.653,4.653,0,0,1,4.96,4.911c-.025,2.652-1.793,3.266-5.329,3.266m.221-5.059c-1.007,0-1.719.982-1.768,2.48h1.081c1.842,0,2.21-.368,2.21-1.007a1.328,1.328,0,0,0-1.523-1.473" transform="translate(-214.712 -47.248)" fill="#e6007e"/>
      <path id="Path_164" data-name="Path 164" d="M338.1,70.777h-1.449c0,1.351,1.105,2.087,2.628,2.087,1.817,0,2.775-.417,3.34-1.007h.123v1.154c0,1.572-1.105,3.02-4.224,3.02-3.512,0-5.722-2.628-5.722-6.483,0-4.027,2.308-6.949,5.673-6.949a4.653,4.653,0,0,1,4.96,4.911c-.025,2.652-1.793,3.266-5.329,3.266m.221-5.059c-1.007,0-1.719.982-1.768,2.48h1.081c1.842,0,2.21-.368,2.21-1.007a1.338,1.338,0,0,0-1.523-1.473" transform="translate(-251.076 -47.248)" fill="#e6007e"/>
      <path id="Path_165" data-name="Path 165" d="M388.743,63.716a2.1,2.1,0,0,1-2.161,1.179c-2.136,0-3.782-1.2-3.782-4.1V48h1.228c1.744,0,2.5.81,2.5,2.456v9.9c0,1.056.467,1.375,1.5,1.375h.81v1.3a2.119,2.119,0,0,1-.1.688" transform="translate(-288.797 -36.233)" fill="#e6007e"/>
      <path id="Path_166" data-name="Path 166" d="M418.8,77.189c-3.119,0-5.3-1.67-5.3-5.771V64.1h1.523a2.084,2.084,0,0,1,2.357,2.357V71.32c0,2.087.663,2.6,1.621,2.6.786,0,1.424-.467,1.424-2.578V64.1h1.5a2.164,2.164,0,0,1,2.382,2.357V71.32c.025,4.052-1.989,5.869-5.5,5.869" transform="translate(-311.959 -48.38)" fill="#e6007e"/>
      <path id="Path_167" data-name="Path 167" d="M467.712,48.1a2.051,2.051,0,1,1,0-4.1,2.054,2.054,0,0,1,2.063,2.038,2.075,2.075,0,0,1-2.063,2.063M469.5,61.9c-2.137,0-3.659-1.08-3.659-4V49.181h1.228c1.744,0,2.529.81,2.529,2.456v5.8c0,1.056.417,1.375,1.473,1.375h.614V60.06c-.049,1.154-.737,1.842-2.186,1.842" transform="translate(-351.265 -33.216)" fill="#e6007e"/>
      <path id="Path_168" data-name="Path 168" d="M500.606,54.594H503.8v1.449a1.835,1.835,0,0,1-1.866,1.793h-1.351v4.985c0,1.056.565,1.449,1.326,1.449a2.719,2.719,0,0,0,1.645-.417h.123v1.621c0,1.179-.933,2.087-2.7,2.087-2.333,0-4.175-1.13-4.175-4.641V54.692a3.128,3.128,0,0,1,1.277-2.456,3,3,0,0,1,1.915-.737h.614v3.094Z" transform="translate(-374.803 -38.874)" fill="#e6007e"/>
      <path id="Path_169" data-name="Path 169" d="M524.633,66.225c-1.252,0-2.333-.54-2.333-1.523V63.524c1.621-.074,2.775-.688,2.775-2.726V49.281h1.4a2.2,2.2,0,0,1,2.406,2.407v9.5c-.024,3-1.5,5.034-4.248,5.034m2.333-18.049a2.039,2.039,0,1,1,0-4.076,2.039,2.039,0,1,1,0,4.076" transform="translate(-394.041 -33.291)" fill="#e6007e"/>
      <path id="Path_170" data-name="Path 170" d="M563.5,70.777h-1.449c0,1.351,1.105,2.087,2.628,2.087,1.817,0,2.775-.417,3.34-1.007h.123v1.154c0,1.572-1.1,3.02-4.224,3.02-3.512,0-5.722-2.628-5.722-6.483,0-4.027,2.308-6.949,5.673-6.949a4.653,4.653,0,0,1,4.96,4.911c-.025,2.652-1.793,3.266-5.329,3.266m.221-5.059c-1.007,0-1.719.982-1.768,2.48h1.056c1.842,0,2.21-.368,2.21-1.007a1.31,1.31,0,0,0-1.5-1.473" transform="translate(-421.125 -47.248)" fill="#e6007e"/>
      <path id="Path_171" data-name="Path 171" d="M610.9,76.132c-2.7,0-4.076-1.056-4.076-3.07V71.835h.147a4.57,4.57,0,0,0,3.364,1.13c1.179,0,1.6-.393,1.6-1.031,0-.737-.417-.909-2.136-1.3-2.21-.516-3.192-1.5-3.192-3.438,0-2.628,1.866-4.494,4.911-4.494,2.5,0,3.855,1.179,3.855,3v1.228h-.147a4.42,4.42,0,0,0-3.168-1.08c-1.375,0-1.817.442-1.817,1.056s.295.737,2.136,1.154c1.866.417,3.217,1.547,3.217,3.634.049,2.677-1.67,4.445-4.69,4.445" transform="translate(-457.64 -47.324)" fill="#e6007e"/>
    </g>
  </g>
</svg>
